<svg width="190" height="46" viewBox="0 0 190 46" fill="none" xmlns="http://www.w3.org/2000/svg">
<g clip-path="url(#clip0_805_63)">
<path d="M116.038 35.5382C116.677 35.8577 117.236 36.257 117.556 36.816C117.955 37.3751 118.115 38.0139 118.115 38.8126C118.115 39.5313 117.955 40.2501 117.556 40.8091C117.156 41.3681 116.677 41.7674 116.038 42.0869C115.399 42.4063 114.601 42.566 113.642 42.566H111.885V45.2014H109.01V35.0591H113.642C114.521 35.0591 115.319 35.2188 116.038 35.5382ZM114.76 39.9306C115.08 39.691 115.24 39.2917 115.24 38.8126C115.24 38.3334 115.08 38.0139 114.76 37.6945C114.441 37.4549 114.042 37.2952 113.403 37.2952H111.806V40.2501H113.403C114.042 40.2501 114.521 40.1702 114.76 39.9306Z" fill="black"/>
<path d="M125.462 43.2049H121.229L120.431 45.1216H117.556L122.028 35.0591H124.823L129.295 45.1216H126.181L125.462 43.2049ZM124.583 41.1285L123.306 37.9341L122.028 41.1285H124.583Z" fill="black"/>
<path d="M130.094 35.0591H138.479V37.2952H132.889V38.8924H135.524C136.722 38.8924 137.681 39.132 138.319 39.691C138.958 40.1702 139.278 40.9688 139.278 41.9271C139.278 42.9653 138.878 43.7639 138.16 44.323C137.441 44.882 136.403 45.2014 135.125 45.2014H130.094V35.0591ZM134.885 43.1251C135.365 43.1251 135.764 43.0452 136.003 42.8056C136.243 42.6459 136.403 42.3264 136.403 42.007C136.403 41.2882 135.924 40.9688 134.965 40.9688H132.889V43.1251H134.885Z" fill="black"/>
<path d="M142.632 44.6425C141.753 44.1633 141.115 43.6043 140.635 42.8057C140.156 42.0071 139.917 41.1286 139.917 40.0904C139.917 39.0522 140.156 38.1737 140.635 37.3751C141.115 36.5765 141.753 35.9376 142.632 35.5383C143.51 35.0591 144.469 34.8994 145.507 34.8994C146.545 34.8994 147.503 35.139 148.382 35.5383C149.26 36.0175 149.899 36.5765 150.378 37.3751C150.858 38.1737 151.097 39.0522 151.097 40.0904C151.097 41.1286 150.858 42.0071 150.378 42.8057C149.899 43.6043 149.26 44.2432 148.382 44.6425C147.503 45.1216 146.545 45.2814 145.507 45.2814C144.469 45.2814 143.51 45.1216 142.632 44.6425ZM146.865 42.6459C147.264 42.4064 147.583 42.0869 147.823 41.6077C148.063 41.1286 148.222 40.6494 148.222 40.0904C148.222 39.5314 148.063 39.0522 147.823 38.573C147.583 38.0939 147.264 37.7744 146.865 37.5348C146.465 37.2952 145.986 37.1355 145.507 37.1355C145.028 37.1355 144.549 37.2952 144.149 37.5348C143.75 37.7744 143.431 38.0939 143.191 38.573C142.951 39.0522 142.792 39.5314 142.792 40.0904C142.792 40.6494 142.951 41.1286 143.191 41.6077C143.431 42.0869 143.75 42.4064 144.149 42.6459C144.549 42.8855 145.028 43.0452 145.507 43.0452C145.986 43.0452 146.465 42.8855 146.865 42.6459Z" fill="black"/>
<path d="M160.361 37.375H157.326V45.2014H154.531V37.375H151.417V35.1389H160.361V37.375Z" fill="black"/>
<path d="M167.309 43.2049H163.076L162.278 45.1216H159.403L163.875 35.0591H166.67L171.142 45.1216H168.188L167.309 43.2049ZM166.51 41.1285L165.233 37.9341L163.955 41.1285H166.51Z" fill="black"/>
<path d="M127.139 16.9307C127.618 16.9307 128.177 16.9307 128.656 17.0105C128.097 17.0105 127.618 16.9307 127.139 16.9307Z" fill="black"/>
<path d="M129.215 17.0903C129.615 17.0903 130.014 17.1702 130.413 17.1702C130.014 17.0903 129.615 17.0903 129.215 17.0903Z" fill="black"/>
<path d="M74.9896 2.55566C74.9896 2.55566 76.1875 3.83344 74.9097 6.62858C73.6319 9.42372 70.1181 13.9758 72.5139 15.573C72.5139 15.573 72.6736 13.8161 74.9896 11.0209C77.3056 8.06608 81.1389 2.63553 74.9896 2.55566Z" fill="black"/>
<path d="M86.4097 18.6875C85.2118 19.4063 83.6944 19.7257 83.375 19.8056C84.0139 18.448 84.3333 17.0903 83.8541 16.2118C83.6146 15.8125 83.2152 15.2535 82.0972 15.1737C81.1389 15.0938 80.2604 15.573 79.7014 16.4514C79.0625 17.5695 78.9826 19.3264 79.9409 20.3646C80.1805 20.6042 80.6597 20.9237 81.3784 21.0834C80.9791 21.7223 80.5 22.3612 80.0208 23C78.5034 24.8368 77.1458 25.0764 76.5069 25.0764C75.9479 24.5174 76.2673 22.6007 76.5868 20.7639C76.9861 18.6875 79.7014 15.6528 79.7014 15.6528C74.9896 15.573 73.3125 19.8855 73.2326 22.6806C73.2326 24.757 74.5902 25.7153 75.6284 25.9549C75.6284 25.9549 75.7882 26.0348 76.0277 26.0348C76.1875 26.0348 76.3472 26.1146 76.5069 26.1146C76.5868 26.1146 76.6666 26.1146 76.7465 26.1146C77.7847 26.0348 79.3021 25.5556 80.8993 23.6389C81.4583 23 82.0972 22.0417 82.6562 21.0834C82.8958 21.0035 83.2152 21.0035 83.5347 20.8438C83.8541 20.7639 85.6111 20.3646 86.9687 19.566L86.4097 18.6875ZM82.0173 20.125C81.618 20.125 81.2187 20.0452 80.8993 19.7257C80.2604 19.0869 80.3402 17.7292 80.7396 16.9306C80.8993 16.6112 81.2986 16.132 81.8576 16.132H81.9375C82.4965 16.2118 82.6562 16.3716 82.7361 16.6112C83.1354 17.3299 82.8159 18.6077 82.0173 20.125Z" fill="black"/>
<path d="M96.7118 18.8472C95.5139 19.566 93.9965 19.8854 93.6771 19.9653C94.316 18.6076 94.6354 17.25 94.1563 16.3715C93.9167 15.9722 93.5174 15.4132 92.3993 15.3333C91.441 15.2535 90.5625 15.7326 90.0035 16.6111C89.3646 17.7292 89.2847 19.4861 90.2431 20.5243C90.4826 20.7639 90.9618 21.0833 91.6806 21.243C91.2813 21.8819 90.8021 22.5208 90.3229 23.1597C88.8056 24.9965 87.4479 25.2361 86.809 25.2361C86.25 24.6771 86.5695 22.7604 86.8889 20.9236C87.2882 18.8472 90.0035 15.8125 90.0035 15.8125C85.2917 15.7326 83.6146 20.0451 83.5347 22.8403C83.5347 24.9167 84.8924 25.875 85.9306 26.1146C85.9306 26.1146 86.0903 26.1944 86.3299 26.1944C86.4896 26.1944 86.6493 26.2743 86.809 26.2743C86.8889 26.2743 86.9688 26.2743 87.0486 26.2743C88.0868 26.1944 89.6042 25.7153 91.2014 23.7986C91.7604 23.1597 92.3993 22.2014 92.9583 21.243C93.1979 21.1632 93.5174 21.1632 93.8368 21.0035C94.1563 20.9236 95.9132 20.5243 97.2708 19.7257L96.7118 18.8472ZM92.3195 20.2847C91.9201 20.2847 91.5208 20.2049 91.2014 19.8854C90.5625 19.2465 90.6424 17.8889 91.1215 17.0903C91.2813 16.7708 91.6806 16.2917 92.2396 16.2917H92.3195C92.8785 16.3715 93.0382 16.5312 93.1181 16.7708C93.4375 17.4896 93.1181 18.7673 92.3195 20.2847Z" fill="black"/>
<path d="M75.1493 24.1182C74.9896 23.7987 74.9097 23.4793 74.8298 23.2397C73.3125 24.6772 71.316 26.514 69.8785 27.7119C69.3194 28.1911 68.7604 28.5105 68.2812 28.7501C66.4444 25.0765 73.1528 18.2084 73.1528 18.2084C69.0798 18.1286 66.684 20.764 65.4062 23.2397C63.8889 24.198 62.1319 24.9966 61.0139 24.5973C58.6979 23.7188 60.2153 14.8543 63.809 10.5418C67.4028 6.22926 69.4791 5.90982 70.7569 6.06954C72.0347 6.22926 74.2708 6.86815 73.3125 9.82301L74.6701 7.90635C74.6701 7.90635 74.3507 4.7119 69.9583 4.63204C65.566 4.55218 59.6562 7.82648 56.941 15.0938C54.2257 22.3612 58.4583 25.8751 60.2951 25.8751C61.1736 25.8751 62.9305 25.7952 64.6076 25.1563C64.2882 26.1945 64.1285 27.073 64.1285 27.3925C64.1285 28.5904 65.0069 30.1077 66.4444 30.1876C66.684 30.1876 66.8437 30.1876 67.0035 30.1077C67.8819 30.0279 69.2396 29.7084 70.6771 28.4307C72.0347 27.3126 73.7917 25.6355 75.309 24.2779C75.2292 24.198 75.1493 24.198 75.1493 24.1182Z" fill="black"/>
<path d="M133.049 17.0105C130.174 16.5313 127.299 16.2917 124.663 16.4515C123.865 15.8924 122.986 15.4133 122.267 15.014C120.031 13.7362 118.434 12.7779 118.514 11.2605C118.594 9.02439 120.99 6.948 122.747 6.948C123.625 6.948 124.424 7.3473 124.903 7.90633C124.983 7.98619 125.062 8.14592 125.142 8.22578C125.622 8.94453 125.701 9.74314 125.542 10.6216C124.344 12.9376 123.306 15.2536 124.903 16.2917C124.903 16.2917 125.062 14.5348 127.378 11.7397C129.694 8.86466 133.528 3.43411 127.378 3.35425C127.378 3.35425 128.576 4.63203 127.299 7.42717C127.139 7.82647 126.899 8.30564 126.66 8.70494C126.66 8.70494 126.819 5.5105 122.028 5.43064C121.389 5.43064 120.83 5.5105 120.351 5.59036C119.312 5.75008 118.354 6.06953 117.476 6.54869C117.236 6.70841 116.997 6.86814 116.837 7.02786C115.24 8.46536 114.601 10.382 114.681 11.5001C114.84 13.7362 116.837 14.8542 119.951 16.0522C120.431 16.2119 120.91 16.5313 121.309 16.8508C121.149 16.8508 120.99 16.9306 120.91 16.9306C114.361 18.2883 111.087 21.5626 110.608 22.9202C109.889 24.8369 109.649 27.3126 113.802 29.948C113.802 29.948 113.882 29.948 113.882 30.0279C114.92 30.4272 115.878 30.7466 116.917 30.9063C118.594 30.9862 120.271 30.8265 121.868 30.3473C121.868 30.3473 121.868 30.3473 121.948 30.3473C125.062 29.4688 126.979 28.2709 127.538 26.9133C128.736 23.9584 128.736 20.0452 125.941 17.5695C128.177 17.4897 130.413 17.7292 132.809 18.1286L133.128 18.2084L133.368 17.1702L133.049 17.0105ZM118.035 30.1077C117.316 30.1077 116.677 30.0279 116.038 29.8681H115.958C115.878 29.8681 115.799 29.7883 115.719 29.7883C115.319 29.6286 114.92 29.4688 114.521 29.2292C114.122 28.9897 113.802 28.7501 113.483 28.5105C112.604 27.632 112.444 26.3542 112.844 24.8369C113.403 22.6806 115.559 20.2848 118.035 19.007C119.392 18.5279 120.83 18.1286 122.267 17.889C123.625 19.7258 123.944 22.2015 123.944 23.4792C123.785 25.4758 122.267 30.1077 118.035 30.1077Z" fill="black"/>
<path d="M144.309 22.4411C142.312 26.2745 140.076 26.0349 139.517 25.955C138.799 25.5557 139.118 23.4793 139.517 21.5626C139.917 19.4863 142.632 16.4515 142.632 16.4515C137.92 16.3717 136.243 20.6842 136.163 23.4793C136.163 23.9585 136.243 24.2779 136.323 24.6772C134.885 26.1147 133.528 26.0349 133.128 25.955C132.41 25.5557 132.729 23.4793 133.128 21.5626C133.528 19.4863 136.243 16.4515 136.243 16.4515C131.531 16.3717 129.854 20.6842 129.774 23.4793C129.694 25.7953 131.451 26.6738 132.49 26.8335C132.569 26.8335 132.889 26.9932 133.528 26.9932C134.326 26.9932 135.524 26.7536 136.802 25.7154C137.361 26.4342 138.24 26.8335 138.878 26.9133C138.958 26.9133 139.278 27.0731 139.917 27.0731C141.194 27.0731 143.431 26.514 145.267 22.9203L144.309 22.4411Z" fill="black"/>
<path d="M166.91 24.0382C165.153 26.5938 163.316 26.434 162.837 26.3542C162.118 25.9549 162.437 23.8785 162.837 21.9618C163.236 19.8854 165.951 16.8507 165.951 16.8507C161.24 16.7708 159.562 21.0833 159.483 23.8785C159.403 26.1945 161.16 27.0729 162.198 27.2326C162.278 27.2326 162.597 27.3924 163.236 27.3924C164.194 27.3924 165.712 27.0729 167.229 25.3958C166.99 24.9965 166.91 24.5174 166.91 24.0382Z" fill="black"/>
<path d="M178.569 23.0002C177.851 23.9585 176.733 25.1565 175.774 25.7954C175.295 26.1947 174.976 26.0349 174.976 25.0766C174.976 24.1183 176.813 19.4863 176.733 18.2884C176.653 17.0905 175.135 17.0106 175.135 17.0106C174.576 17.0106 173.858 17.2502 172.899 17.8891C171.941 18.528 170.104 21.0835 168.667 23.1599C169.625 19.8856 171.222 16.8509 171.222 16.8509C167.469 16.771 166.031 19.8058 166.031 23.3197C166.031 26.8335 168.028 27.2328 168.028 27.2328C168.028 26.8335 168.028 26.3544 168.108 25.9551C169.306 24.1183 170.983 21.7224 172.26 20.2051C172.74 19.5662 173.139 19.3266 173.618 19.0072C174.337 18.6079 174.097 19.8856 173.538 21.403C172.979 22.9204 172.979 25.1565 172.979 25.1565C172.899 25.8752 172.979 26.4342 173.219 26.7537C173.378 27.0731 173.698 27.2329 174.017 27.3127C174.097 27.3127 174.257 27.3127 174.337 27.3127C176.493 27.3127 179.128 24.1183 179.608 23.3995L178.569 23.0002Z" fill="black"/>
<path d="M109.649 5.3509C109.569 5.27104 109.49 5.27104 109.33 5.27104H109.25C107.892 5.11132 106.215 7.50715 105.497 8.46549C103.181 11.9794 101.424 16.771 101.823 21.6426C98.6285 25.4759 97.2708 25.3162 97.1111 25.3162C97.0313 25.3162 97.0313 25.3162 96.9514 25.3162C96.5521 24.7572 96.7118 23.2398 96.9514 21.7224C98.5486 16.6912 101.823 16.5315 101.823 16.5315C100.944 15.7328 99.5868 15.8926 98.6285 16.1322C98.5486 16.1322 98.3889 16.212 98.309 16.212C98.2292 16.212 98.1493 16.2919 98.0695 16.2919C97.9896 16.2919 97.8299 16.3717 97.75 16.3717C97.5903 16.4516 97.5104 16.4516 97.5104 16.4516C94.7951 17.6495 93.757 20.7641 93.757 22.9203C93.6771 25.7155 96.0729 26.3544 97.0313 26.3544C97.1111 26.3544 97.191 26.3544 97.2708 26.3544C97.8299 26.3544 98.7882 26.0349 100.066 24.9967C100.545 24.5974 101.264 24.1183 101.983 23.3995C102.462 25.8752 103.5 28.271 105.337 30.5072C105.417 30.6669 105.656 30.7467 105.816 30.7467C105.976 30.7467 106.056 30.7467 106.135 30.6669C106.375 30.5072 106.455 30.1877 106.295 29.9481C104.299 27.4724 103.34 24.9169 103.101 22.4412C106.455 19.2467 110.767 14.1356 111.566 10.6217C112.444 6.7884 110.448 5.67035 109.649 5.3509ZM105.257 11.1009C106.854 7.8266 108.611 6.30924 109.09 6.22937C109.809 7.26757 106.694 15.094 103.021 20.1252C103.021 16.0523 104.538 12.5384 105.257 11.1009Z" fill="black"/>
<path d="M161.878 5.90971C161.799 5.90971 161.799 5.90971 161.878 5.90971C160.521 5.74999 158.764 8.14582 158.125 9.18402C155.969 12.4583 154.292 16.8507 154.371 21.4028C153.174 22.1215 152.135 22.0417 151.177 22.0417C150.378 21.7222 152.774 18.9271 152.774 17.7292C152.774 16.8507 151.656 16.6111 151.177 16.6111C151.097 16.6111 151.017 16.6111 151.017 16.6111C150.618 16.6111 150.219 16.7708 149.979 16.8507C148.621 17.3299 147.264 19.0868 146.146 20.8437C147.024 18.5278 147.983 16.691 147.983 16.691C144.229 16.6111 142.792 19.6458 142.792 23.1597C142.792 26.6736 144.788 27.0729 144.788 27.0729C144.788 26.6736 144.788 26.2743 144.868 25.875C145.587 24.0382 147.903 19.3264 149.899 17.9687C150.778 17.809 150.458 17.7292 149.5 19.8055C148.542 21.9618 150.139 22.7604 150.139 22.7604C150.299 22.8403 150.618 23 150.937 23H151.177C152.135 23.0798 153.253 23.0799 154.531 22.5208C154.771 25.4757 155.889 28.5104 158.045 31.2257C158.125 31.3854 158.365 31.4653 158.524 31.4653C158.684 31.4653 158.764 31.4653 158.844 31.3854C159.083 31.2257 159.163 30.9062 159.003 30.6667C156.687 27.8715 155.809 24.8368 155.649 22.0417C155.729 21.9618 155.889 21.8021 155.969 21.7222V21.8021C157.087 21.243 158.125 20.5243 159.003 19.6458C159.403 19.1667 159.802 18.6875 160.281 18.2882C160.361 18.2083 160.441 18.1285 160.521 18.1285C162.358 15.8125 163.875 13.3368 164.354 11.4201C165.312 6.5486 161.878 5.90971 161.878 5.90971ZM155.569 20.4444C155.729 16.5312 157.167 13.2569 157.885 11.8993C159.562 8.54513 161.319 7.02777 161.719 7.02777C161.719 7.02777 161.878 7.10763 161.878 7.58679C161.878 9.98263 159.163 16.4514 155.569 20.4444C155.569 20.3646 155.569 20.3646 155.569 20.4444Z" fill="black"/>
<path d="M184.719 23.9585C184.639 23.8786 184.559 23.7988 184.479 23.7189C184.319 23.9585 184.08 24.1981 183.92 24.4377C182.403 26.2745 181.045 26.5141 180.406 26.5141C179.847 25.955 180.167 24.0384 180.486 22.2016C180.885 20.1252 183.601 17.0904 183.601 17.0904C178.889 17.0106 177.212 21.3231 177.132 24.1182C177.132 26.1946 178.41 27.0731 179.448 27.3925C179.448 27.3925 179.448 27.3925 179.528 27.3925C179.528 27.3925 179.687 27.4724 179.927 27.4724C180.087 27.4724 180.247 27.5523 180.406 27.5523C180.486 27.5523 180.566 27.5523 180.646 27.5523C181.684 27.4724 183.201 26.9932 184.799 25.0766C184.878 24.9967 184.958 24.837 185.038 24.7571C185.118 24.3578 185.038 24.1182 184.719 23.9585Z" fill="black"/>
<path d="M168.826 5.98975C168.826 5.98975 169.545 7.18766 168.028 9.18419C166.51 11.1807 162.917 14.3752 164.514 15.8925C164.514 15.8925 164.993 14.5349 167.309 12.6182C169.625 10.7016 173.698 6.86822 168.826 5.98975Z" fill="black"/>
<path d="M148.062 27.7917C148.062 27.7917 148.462 26.514 151.177 26.0348C153.892 25.5556 158.924 25.5556 159.083 23.4792C159.083 23.4792 157.726 24.1181 154.451 24.0383C151.177 23.8786 145.347 24.0383 148.062 27.7917Z" fill="black"/>
<path d="M187.514 17.1701H187.434H187.354C186.715 17.25 186.156 17.4896 185.757 18.1285C184.799 19.8056 183.92 21.4028 182.563 26.5139C182.403 26.9931 182.323 27.5521 182.163 28.1111C176.972 30.8264 171.622 35.8576 172.181 38.4132C172.34 39.132 172.899 39.9306 174.896 39.9306H174.976C179.368 40.0104 182.483 33.7014 184.559 28.1111L184.958 26.9132V26.8333C185.278 25.7153 185.597 24.6771 185.997 23.6389C186.316 22.8403 186.476 21.9618 186.875 21.2431C186.955 21.1632 186.955 21.0035 187.035 20.9236C187.993 18.2083 189.111 17.7292 189.191 17.7292L189.431 17.6493C189.351 17.5695 189.111 17.0104 187.514 17.1701ZM174.896 38.9722C173.458 38.9722 173.299 38.4132 173.299 38.2535C172.899 36.4965 176.892 32.2639 181.764 29.5486C180.406 33.941 178.569 38.3333 174.896 38.9722Z" fill="black"/>
<path d="M182.003 17.2502C182.003 17.2502 184.799 16.4516 185.437 17.8092C185.437 17.8092 181.844 17.4898 180.486 22.2016L179.767 19.8856L182.003 17.2502Z" fill="black"/>
<path d="M35.8576 8.30547L30.2673 6.70825L29.9479 7.66659L34.7395 10.5416L36.177 9.58325L39.1319 14.6145L39.7708 13.4964L42.8854 17.0103L44.5625 10.6214L35.8576 8.30547Z" fill="#009BB1"/>
<path d="M1.83679 8.22572C1.99651 8.78475 2.15624 9.34378 2.31596 9.82294C2.47568 9.66322 2.55554 9.58336 2.71526 9.42364L2.79513 9.34378C2.95485 9.26392 3.03471 9.10419 3.19443 9.02433C3.19443 9.02433 3.27429 9.02433 3.27429 8.94447C3.43401 8.86461 3.51388 8.78475 3.6736 8.70489C3.6736 8.70489 3.75346 8.70489 3.75346 8.62503C3.91318 8.54517 3.99304 8.4653 4.15276 8.38544C4.23263 8.38544 4.23263 8.30558 4.31249 8.30558C4.47221 8.22572 4.55207 8.22572 4.71179 8.14586L3.59374 7.82642L1.83679 8.22572Z" fill="#009BB1"/>
<path d="M30.4271 5.35059V7.34711C30.4271 7.34711 42.0069 11.1804 44.243 12.6179L45.2014 9.66309L30.4271 5.35059Z" fill="#007A8A"/>
<path d="M3.75344 6.54858C2.79511 6.78817 1.9965 7.02775 1.51733 7.18747C1.5972 7.50692 1.75692 7.82636 1.83678 8.22567L3.59372 7.90622L4.71178 8.30553C5.11108 8.06594 5.59025 7.98608 5.98956 7.82636C5.35067 7.3472 4.4722 6.86803 3.75344 6.54858Z" fill="#007A8A"/>
<path d="M34.6597 33.5416C34.8993 33.1423 35.1388 32.8228 35.3784 32.4235C35.6979 31.8645 35.9375 31.3054 36.2569 30.7464C36.5763 30.1874 36.8958 29.4686 37.375 28.9096V28.8298C37.2152 28.67 36.9756 28.5103 36.7361 28.3506C36.3368 28.4304 35.9375 28.7499 35.5381 28.8298C35.4583 28.8298 35.4583 28.8298 35.4583 28.8298C34.7395 29.7082 34.1805 30.8263 33.7013 31.8645C33.4618 32.3436 33.1423 32.8228 32.6631 33.1423C32.6631 33.2221 32.5833 33.2221 32.5833 33.302H32.5034C32.2638 33.4617 32.0243 33.5416 31.7847 33.7013C31.625 33.861 31.3854 33.9409 31.2256 34.1006C31.2256 34.1804 31.2256 34.1804 31.2256 34.2603L31.3055 34.3402C31.3854 34.42 31.4652 34.5798 31.5451 34.6596C31.9444 34.8992 32.2638 35.2186 32.6631 35.5381H32.743C32.8229 35.6179 32.9027 35.6179 32.9826 35.6179C33.3819 35.2985 33.7812 34.8992 34.1805 34.5798C34.1805 34.4999 34.1805 34.4999 34.1006 34.42C34.2604 34.1006 34.4201 33.7811 34.6597 33.5416Z" fill="#007A8A"/>
<path d="M37.2153 18.2882C37.375 18.2083 37.5347 18.0486 37.6146 17.8889C37.6146 17.3298 37.375 16.7708 36.6562 16.6111C37.1354 17.3298 37.2153 18.2882 37.2153 18.2882Z" fill="#F8AC00"/>
<path d="M36.6563 20.0452C35.2188 20.8439 33.1424 20.5244 33.1424 20.5244C35.2188 20.4446 36.0174 19.0869 36.0174 19.0869C36.0174 19.0869 34.0209 20.3647 31.5452 19.3265C31.5452 19.2466 32.5834 23.1598 36.6563 20.0452Z" fill="#F8AC00"/>
<path d="M32.7431 17.3299C32.7431 17.2501 32.7431 17.0904 32.7431 17.0105C32.5035 17.0904 32.1841 17.0904 31.8646 17.0904C32.2639 17.2501 32.7431 17.3299 32.7431 17.3299Z" fill="#F8AC00"/>
<path d="M33.1424 23.9583C33.1424 23.9583 32.2639 23.2395 31.3056 23.1597L30.9063 23.3194C30.9063 23.3194 30.6667 23.3993 30.3472 23.6388C31.066 23.559 31.9445 23.559 32.4236 23.7187L33.1424 23.9583Z" fill="#F8AC00"/>
<path d="M28.9097 23.3194C29.0695 23.0799 29.309 22.8403 29.5486 22.6806C28.9896 22.1215 28.5903 21.4028 28.3507 20.8438C28.3507 20.8438 28.3507 22.441 28.9097 23.3194Z" fill="#F8AC00"/>
<path d="M38.6528 23.3993C38.4931 23.7986 38.0938 24.118 37.7743 24.1979C37.7743 24.1979 38.573 24.4374 38.9723 23.9583C38.9723 23.9583 41.2882 23.8784 42.2466 23.4791C41.1285 24.1979 36.9757 26.7534 33.8611 27.6319C33.8611 27.6319 34.1007 25.3159 35.0591 24.9166C35.0591 24.9166 33.4618 24.5173 32.2639 25.7951C32.9028 25.5555 33.7014 25.3159 34.3403 25.4756C34.3403 25.4756 31.3056 26.5937 30.9063 28.0312L30.8264 26.993C30.8264 26.2743 31.066 25.3958 31.3056 24.8368C30.5868 24.8368 29.7084 24.9965 29.0695 25.0763L28.75 25.2361C28.6702 25.5555 28.6702 25.9548 28.5903 26.2743C28.5903 26.2743 29.6285 25.6354 30.3473 25.7951C30.3473 25.7951 29.8681 27.4722 30.1875 29.0694C30.1875 29.0694 29.948 28.5902 28.1111 28.3506C30.2674 29.9479 30.9063 32.743 31.066 33.7013C31.2257 33.7812 31.4653 33.9409 31.7049 34.1805C32.4236 33.3819 34.4202 30.9861 34.6598 28.6701V28.2708L34.9792 28.1111C38.4132 26.7534 42.2466 24.9166 42.8056 24.2777C42.8056 23.7187 42.8056 23.3993 42.8056 23.1597C41.2084 23.559 38.6528 23.3993 38.6528 23.3993Z" fill="#F8AC00"/>
<path d="M44.0035 20.9236C43.4444 20.8437 42.7257 20.684 42.3264 20.2048C42.4063 20.5243 42.566 20.9236 42.9653 21.1632C42.9653 21.1632 42.4861 22.3611 38.8125 22.8403C38.8125 23 38.8125 23.0798 38.8125 23.0798C41.7674 23.0798 43.4444 22.1215 43.4444 22.1215C43.7639 21.8021 44.1632 21.4028 44.0035 20.9236Z" fill="#F8AC00"/>
<path d="M12.7778 29.2292C14.1355 28.0313 14.8542 26.2744 15.2535 24.9966C14.4549 25.9549 13.0174 26.9931 10.1424 27.9514C11.3403 30.0278 12.6181 31.8646 13.816 33.5417C13.257 30.6667 15.2535 28.6702 15.2535 28.6702C14.2952 28.4306 12.7778 29.2292 12.7778 29.2292Z" fill="#F8AC00"/>
<path d="M13.816 24.6771C13.7361 24.9167 13.6563 25.1563 13.5764 25.3959C14.2952 24.9966 15.0938 24.3577 15.5729 23.5591C15.0938 24.3577 14.375 24.5973 13.816 24.6771Z" fill="#F8AC00"/>
<path d="M12.7778 23.8784C10.4618 24.677 9.66323 26.0347 9.42365 26.6736C9.66323 26.993 9.82295 27.3923 10.0625 27.7118L11.5 26.434C12.2188 25.7152 12.6181 24.677 12.7778 23.8784Z" fill="#F8AC00"/>
<path d="M32.5834 39.4514C32.3438 39.7708 32.0243 40.6493 31.4653 40.6493C30.9063 40.6493 30.3472 39.691 30.1875 40.0104C30.1875 40.0104 28.2709 31.3854 20.6042 37.2153C22.5209 37.0556 27.2327 37.2153 29.3889 41.6077L29.5486 41.9271L28.2709 43.6042C28.5903 43.7639 28.9896 43.9236 29.3889 43.9236C29.7882 43.8438 30.1077 43.684 30.3472 43.2049L30.507 42.9653H30.8264C30.9063 42.9653 32.5035 42.8854 32.5035 41.6875V41.2083L32.9827 41.0486C32.9827 41.0486 33.2222 40.9688 33.382 40.6493C33.4618 40.4097 33.5417 40.0903 33.4618 39.4514C33.1424 39.4514 32.7431 39.2917 32.5834 39.4514Z" fill="#F8AC00"/>
<path d="M25.0764 21.6423C24.5174 21.8819 24.2778 22.1215 24.2778 22.1215L23.3993 23.1597L23.1598 21.8021C22.6007 22.8402 21.882 23.9583 20.9236 24.9166L22.441 24.8368C22.6806 24.5972 22.9202 24.1979 23.1598 23.8784L23.6389 24.5972C23.6389 24.5972 23.9584 23.559 24.3577 23.3194C24.3577 23.3194 24.8368 25.7153 25.5556 26.2743C25.5556 26.2743 25.1563 24.8368 25.1563 23.4791C25.0764 22.7604 25.0764 22.1215 25.0764 21.6423Z" fill="#F8AC00"/>
<path d="M19.8855 26.1946L17.4896 26.3543L18.7674 27.2328C19.1667 26.8335 19.566 26.514 19.8855 26.1946Z" fill="#F8AC00"/>
<path d="M23.2396 18.6076C23.3195 17.809 23.5591 17.1701 23.7987 16.5312C23.6389 16.5312 23.5591 16.5312 23.3993 16.6111C23.2396 17.1701 22.7605 18.2882 21.8021 19.0868C21.882 19.7257 22.0417 20.6042 21.9618 21.5625C22.6806 20.125 23.1598 18.7674 23.2396 18.6076Z" fill="#F8AC00"/>
<path d="M21.882 16.9307C21.7223 16.9307 21.6424 17.0105 21.4827 17.0105C20.6841 17.0904 19.9653 16.6112 19.6459 16.2119C19.6459 16.4515 19.6459 16.6911 19.6459 16.8508C19.8056 17.33 20.5243 18.0487 21.2431 18.3682C21.5625 17.9689 21.8021 17.4897 21.9618 16.9307H21.882Z" fill="#F8AC00"/>
<path d="M21.6424 26.5139C20.8438 27.0729 19.4063 28.191 18.3681 29.5486C18.9271 29.4688 19.566 29.4688 20.125 29.4688C20.2848 28.8299 20.7639 27.5521 21.6424 26.5139Z" fill="#F8AC00"/>
<path d="M26.3542 14.2951C26.3542 14.2951 29.0695 11.8194 30.5868 11.8194C30.5868 11.8194 30.2674 11.3403 29.7882 11.4201C29.7882 11.4201 30.8264 9.98264 30.9861 8.94444C30.6667 8.78472 30.2674 8.70486 29.9479 8.625C29.5486 9.90278 28.9896 11.1007 28.5104 12.059C28.8299 11.8993 29.0695 11.8993 29.0695 11.8993C29.1493 11.8194 27.7118 12.6979 26.3542 14.2951Z" fill="#F8AC00"/>
<path d="M17.0903 30.9862L16.7709 31.0661C17.1702 31.1459 17.8889 31.3855 18.448 31.5452C18.6875 31.2258 19.007 30.9063 19.2466 30.6667C18.5278 30.7466 17.6493 30.9063 17.0903 30.9862Z" fill="#F8AC00"/>
<path d="M19.4063 12.9375C20.125 9.5035 22.9202 8.4653 22.9202 8.4653H23.0799C24.1979 8.30558 25.1563 8.54516 25.9549 9.18405C26.7535 9.82294 27.1528 10.7813 27.3924 11.5799C27.632 11.1806 27.8716 10.6216 28.1111 10.1424C27.7917 9.34378 27.0729 7.82641 25.7952 6.78822C25.7952 6.78822 25.9549 7.66669 25.875 8.066C25.875 8.066 23 5.5903 20.5243 6.14933C20.5243 6.14933 21.4028 6.78822 21.7222 7.66669C21.7222 7.66669 17.0903 6.14933 13.3368 8.38544C13.3368 8.38544 16.691 8.62503 18.2084 10.7014C18.2084 10.7014 14.4549 11.7396 12.8577 14.5347C15.2535 13.4966 18.2084 13.0972 19.4063 12.9375Z" fill="#F8AC00"/>
<path d="M10.2223 13.5764C7.9063 14.6146 5.75005 16.5313 4.87158 17.3299C5.27089 18.3681 5.67019 19.3264 6.14936 20.2847C6.38894 19.007 7.18755 16.0521 10.2223 13.5764Z" fill="#F8AC00"/>
<path d="M9.42364 8.78483C9.42364 8.78483 8.62503 6.54872 5.82989 6.14941C6.6285 6.62858 7.42711 7.26747 7.74655 8.06608L8.066 8.86469L7.18753 8.94455C7.18753 8.94455 4.23267 9.18414 2.79517 11.2605C3.27433 12.698 3.7535 14.0557 4.23267 15.3334C4.07294 13.5765 4.63197 10.2223 9.42364 8.78483Z" fill="#F8AC00"/>
<path d="M18.5278 21.6423C16.0521 17.809 13.0174 20.2048 13.0174 20.2048C16.4514 19.4062 18.5278 21.6423 18.5278 21.6423Z" fill="#F8AC00"/>
<path d="M26.0348 19.2465C26.0348 19.2465 27.1528 16.4514 30.1077 15.8125C30.1077 15.7326 25.9549 14.8541 26.0348 19.2465Z" fill="#F8AC00"/>
<path d="M28.191 41.0486C28.2709 40.4896 27.632 39.9306 27.073 40.0903C26.9133 40.0903 26.8334 40.1701 26.6737 40.25C24.0383 37.934 20.2049 38.6528 19.9653 38.7326L19.1667 38.8924L19.2466 38.0938C19.3264 37.375 19.4063 36.6562 19.566 36.0174C19.1667 35.1389 18.9271 33.8611 19.566 32.3438C18.5278 33.5417 17.4098 35.2986 17.0903 37.6944C19.0869 39.9306 21.0834 41.7674 22.9202 43.2049C22.9202 43.3646 23.0001 43.5243 23.1598 43.7639C23.5591 44.3229 24.1181 44.5625 24.757 44.6424C25.1563 44.7222 25.5556 44.4028 25.7153 44.0035C25.9549 44.0035 26.2744 43.9236 26.4341 43.6042C26.5938 43.3646 26.7535 43.125 26.9132 42.8854C26.9931 42.8056 27.073 42.566 27.2327 42.4062C27.7917 42.0069 28.1112 41.6076 28.191 41.0486Z" fill="#F8AC00"/>
<path d="M12.7778 23.9583V23.8784C12.7778 23.8784 12.6979 23.8784 12.7778 23.9583C12.6979 23.9583 12.6979 23.9583 12.7778 23.9583Z" fill="#61BB9B"/>
<path d="M15.8125 29.6285C15.8924 29.6285 15.9722 29.6285 16.0521 29.6285C16.0521 29.5486 16.0521 29.4688 15.9722 29.3889C15.9722 29.4688 15.8924 29.5486 15.8125 29.6285Z" fill="#61BB9B"/>
<path d="M18.7674 27.2326L17.4896 26.3542L15.5729 26.434L18.6875 25.0764C20.125 24.4375 21.2431 22.9201 21.9618 21.5625C22.0417 20.684 21.9618 19.7257 21.8021 19.1667C21.2431 19.6458 20.4445 20.0451 19.4861 20.2049C19.4861 20.2049 20.4445 19.566 21.2431 18.4479C20.5243 18.2083 19.7257 17.4097 19.6459 16.9306C19.6459 16.7708 19.6459 16.5313 19.6459 16.2917C19.566 16.2118 19.4861 16.1319 19.4861 16.0521L19.4063 15.8924V15.7326C19.4063 15.5729 19.4063 15.4132 19.4063 15.2535C19.4063 15.2535 19.4063 15.2535 19.3264 15.2535V15.1736C19.3264 14.8542 19.3264 14.6146 19.3264 14.2951C18.2882 14.4549 16.3716 14.6944 14.6146 15.3333C15.4132 15.6528 16.2917 16.1319 17.0104 16.8507L18.2084 18.0486C18.2084 18.0486 14.0556 16.7708 10.4618 19.0868C11.5 17.5694 13.3368 16.9306 14.7743 16.7708C13.7361 16.2118 12.6979 16.0521 12.6979 15.9722L10.941 15.5729L12.6181 14.7743C12.7778 14.6944 12.9375 14.6146 13.0972 14.5347C14.6945 11.8194 18.4479 10.7014 18.4479 10.7014C16.9306 8.625 13.5764 8.38542 13.5764 8.38542C17.25 6.14931 21.9618 7.66667 21.9618 7.66667C21.6424 6.7882 20.7639 6.14931 20.7639 6.14931C23.1598 5.59028 26.1146 8.06597 26.1146 8.06597C26.1945 7.66667 26.0347 6.78819 26.0347 6.78819C27.3125 7.74653 28.0313 9.26389 28.3507 10.1424C28.9098 8.86458 29.4688 7.26736 29.6285 5.90972C29.3091 6.22917 28.9097 6.46875 28.4306 6.62847L27.8716 6.78819L27.632 6.22917C27.632 6.22917 26.4341 3.59375 24.3577 2.31597C24.5174 2.95486 24.6771 3.67361 24.5973 4.55208L24.5174 5.98958L23.5591 4.95139C23.5591 4.95139 20.6042 1.99653 17.25 1.4375C17.7292 2.07639 18.2084 3.03472 18.4479 4.15278L18.8473 5.67014L17.4896 4.79167C17.4896 4.79167 15.0139 3.19444 10.941 3.19444C11.3403 3.67361 11.6597 4.3125 11.8993 5.19097L12.1389 6.06945L11.2604 5.98958C11.2604 5.98958 8.38544 5.67014 6.06947 6.14931C8.86461 6.54861 9.66322 8.78472 9.66322 8.78472C4.95142 10.2222 4.39239 13.5764 4.47225 15.3333C4.55211 15.5729 4.63197 15.8125 4.71183 15.9722C5.75003 15.0139 7.74656 13.3368 9.90281 12.3785C9.34378 12.2188 8.70489 12.059 7.82642 12.1389L5.35072 12.3785C12.2986 8.30556 15.0139 10.1424 15.0139 10.1424C13.1771 9.90278 11.2604 10.4618 9.98267 11.0208C11.1806 11.3403 11.8195 11.8993 11.8993 11.9792L12.7778 12.7778L11.6598 13.0972C11.3403 13.1771 10.941 13.3368 10.6216 13.4965C7.18753 16.0521 6.38892 19.0069 6.14933 20.2847C6.6285 19.0868 7.50697 17.5694 9.18406 16.3715C9.18406 16.3715 6.94794 19.3264 6.86808 21.9618C7.42711 23.1597 7.98614 24.1979 8.54517 25.316C9.18406 24.3576 10.6216 23 13.257 22.3611L14.0556 22.1215L13.9757 23C13.9757 23.0799 13.8959 23.7986 13.6563 24.6771C14.1354 24.5972 14.8542 24.2778 15.4132 23.6389C15.5729 23.3194 15.7327 23 15.8125 22.6806C15.8125 22.6806 16.2118 23.7188 15.0938 24.9965C14.6945 26.2743 13.9757 28.0313 12.6181 29.2292C12.6181 29.2292 14.2153 28.4306 15.1736 28.6701C15.1736 28.6701 13.1771 30.6667 13.6563 33.4618C13.7361 33.5417 13.816 33.7014 13.816 33.7813C14.4549 34.6597 15.1736 35.5382 15.8125 36.3368C16.2917 34.2604 17.25 32.6632 18.2084 31.5451C17.6493 31.3854 17.0104 31.1458 16.5313 31.066L15.4132 31.3056L16.132 30.0278C17.0104 28.9896 17.8889 28.0313 18.7674 27.2326ZM13.0174 20.2049C13.0174 20.2049 16.132 17.7292 18.5278 21.6424C18.5278 21.6424 16.4514 19.4063 13.0174 20.2049Z" fill="#FFDB00"/>
<path d="M38.8125 22.7603C42.4861 22.361 42.9653 21.0832 42.9653 21.0832C42.4861 20.8436 42.3264 20.4443 42.3264 20.2048C42.007 19.8853 41.8473 19.5659 41.9271 19.0068C42.007 18.2082 42.1667 17.6492 42.3264 17.4096C41.6875 16.8506 40.7292 15.8923 40.0903 14.7742C40.0903 14.9339 40.0903 15.0138 40.0903 15.1735L40.4098 17.7291L38.9723 15.6527C38.6528 15.2534 36.7361 12.3784 35.6979 10.0624C35.6181 10.302 35.6181 10.5416 35.6181 10.7013L35.6979 12.2985L34.5799 11.1804C34.5799 11.1804 32.9827 9.66309 31.1459 8.94434C30.9063 9.98253 29.9479 11.42 29.9479 11.42C30.4271 11.42 30.7466 11.8193 30.7466 11.8193C29.3091 11.8992 26.9132 13.9756 26.5139 14.295C25.5556 15.4929 24.6771 17.0902 24.4375 18.927H24.5174C24.5174 18.927 24.4375 19.0867 24.4375 19.2464C24.4375 19.6457 24.4375 20.1249 24.4375 20.6041C24.757 20.4443 25.2361 20.2846 25.875 20.1249L26.8334 19.9652C26.8334 19.9652 25.2361 22.9999 25.875 24.9964C25.5556 24.5173 25.316 23.8784 25.2361 23.3992C25.316 24.7568 25.6354 26.1943 25.6354 26.1943C24.9167 25.6353 24.4375 23.2395 24.4375 23.2395C24.0382 23.5589 23.7188 24.5173 23.7188 24.5173L23.1598 23.7985C23 24.1978 22.6806 24.5173 22.441 24.7568L24.2778 24.677L22.2813 25.9548C22.2813 25.9548 21.9618 26.1145 21.5625 26.4339C20.6841 27.552 20.2848 28.7499 20.0452 29.3888C20.3646 29.3888 20.6841 29.4686 20.9236 29.5485L22.0417 29.9478L21.0035 30.6666C21.0035 30.6666 20.2847 31.2256 19.4063 32.1839C18.7674 33.7013 19.007 34.9791 19.4063 35.8575C20.0452 33.1423 21.1632 31.3054 21.2431 31.2256C20.125 34.42 20.4445 37.1353 20.4445 37.295C28.191 31.4652 30.0278 40.0902 30.0278 40.0902C30.2674 39.6909 30.7466 40.7291 31.3056 40.7291C31.8646 40.7291 32.1841 39.7707 32.4236 39.5311C32.5035 39.3714 32.9028 39.5311 33.3021 39.6909C33.2223 39.3714 33.1424 38.8923 32.9827 38.4131C31.9445 35.5381 30.1077 34.8193 30.0278 34.7395L29.6285 34.5798C29.8681 28.8298 26.5938 27.552 25.1563 27.2325C26.2743 27.3923 27.2327 27.7916 27.9514 28.3506V28.2707C29.7882 28.5103 30.0278 28.9895 30.0278 28.9895C29.7084 27.3124 30.1875 25.7152 30.1875 25.7152C29.5486 25.5554 28.4306 26.1943 28.4306 26.1943C28.4306 25.8749 28.5104 25.4756 28.5903 25.1561L27.9514 25.3159L28.2709 24.2777C28.4306 23.8784 28.5903 23.5589 28.8299 23.2395C28.2709 22.361 28.2709 20.9235 28.2709 20.7638C28.1111 20.2846 28.0313 19.8853 28.0313 19.8853C28.0313 19.8853 29.1493 22.1214 32.2639 22.6804L31.3056 23.1596C32.2639 23.2395 33.1424 23.9582 33.1424 23.9582L32.8229 24.5971C32.7431 24.8367 32.5035 25.3159 32.3438 25.8749C33.5417 24.5971 35.1389 24.9964 35.1389 24.9964C34.1806 25.3957 33.941 27.7117 33.941 27.7117C37.0556 26.8332 41.2084 24.1978 42.3264 23.5589C41.3681 23.9582 39.0521 24.0381 39.0521 24.0381C38.7327 24.4374 38.0139 24.2777 37.9341 24.2777C37.6146 24.4374 37.375 24.4374 37.375 24.4374C38.4931 23.6388 38.0938 21.3228 38.0938 21.3228C38.6528 21.6423 38.8125 22.361 38.8125 22.7603ZM33.7813 14.6943C33.7813 14.6943 31.4653 12.5381 28.5104 14.9339C28.5104 14.9339 30.507 10.9409 33.7813 14.6943ZM26.0347 19.2464C25.9549 14.8541 30.1077 15.8124 30.1077 15.8124C27.1528 16.3714 26.0347 19.2464 26.0347 19.2464ZM36.5764 20.045C32.5834 23.0798 31.5452 19.2464 31.5452 19.2464C33.7813 20.2048 35.6181 19.2464 35.9375 19.0867C32.1841 20.4443 30.9063 16.2916 30.9063 16.2916C30.9861 16.611 31.4653 16.8506 31.8646 17.0103C32.1841 17.0103 32.5834 17.0103 32.8229 16.9304C32.9827 16.1318 34.0209 15.3332 35.4584 15.6527C36.0973 15.7325 36.4966 16.1318 36.7361 16.611C37.4549 16.7707 37.6146 17.3298 37.6945 17.8888C37.9341 17.5693 38.0938 17.17 38.0938 17.17C38.0938 18.6874 37.4549 19.5659 36.5764 20.045Z" fill="#FFDB00"/>
<path d="M31.3056 24.9167C31.066 25.5556 30.8264 26.3542 30.8264 27.073L30.9063 28.1112C31.3854 26.7535 34.3403 25.5556 34.3403 25.5556C33.7014 25.3959 32.9028 25.6355 32.2639 25.8751C32.4236 25.316 32.6632 24.8369 32.7431 24.5973L33.0625 23.9584L32.3438 23.7188C31.8646 23.5591 30.9861 23.5591 30.2674 23.6389C30.5868 23.3994 30.8264 23.3195 30.8264 23.3195L31.2257 23.1598L32.2639 22.7605C29.2292 22.2014 28.0313 19.9653 28.0313 19.9653C28.0313 19.9653 28.1111 20.3646 28.2709 20.8438C28.5104 21.4028 28.8299 22.1216 29.4688 22.6806C29.2292 22.8403 29.0695 23.0799 28.8299 23.3195C28.5903 23.5591 28.4306 23.9584 28.2709 24.3577L27.9514 25.316L28.6702 25.1563L28.9896 25.0764C29.7084 24.9966 30.5868 24.9167 31.3056 24.9167Z" fill="black"/>
<path d="M32.7431 17.0103C32.7431 17.0902 32.7431 17.2499 32.7431 17.3297C32.7431 17.3297 32.3438 17.2499 31.8646 17.0902C31.3854 16.9304 30.9861 16.6909 30.9062 16.2916C30.9062 16.2916 32.184 20.4443 36.0174 19.0068C36.0174 19.0068 35.2986 20.3645 33.1424 20.4443C33.1424 20.4443 35.2188 20.7638 36.6563 19.9652C36.9757 19.8054 37.2153 19.5659 37.4549 19.3263C37.8542 18.8471 38.0937 18.1284 38.0139 17.0902C38.0139 17.0902 37.8542 17.4895 37.6146 17.8089C37.5347 17.9686 37.375 18.1284 37.2153 18.2082C37.2153 18.2082 37.1354 17.2499 36.7361 16.5311C36.4965 16.1318 36.0972 15.7325 35.4583 15.5728C33.941 15.4131 32.9028 16.2117 32.7431 17.0103ZM33.8611 17.0103C34.2604 17.0103 34.2604 17.6492 33.8611 17.6492C33.4618 17.6492 33.4618 17.0103 33.8611 17.0103ZM36.0972 16.611C36.2569 16.7707 36.4167 17.0103 36.3368 17.17C36.3368 17.3297 36.2569 17.4895 36.0972 17.5693C36.0174 17.7291 35.7778 17.7291 35.6181 17.8089C35.5382 17.8089 35.4583 17.8089 35.3785 17.8089C34.6597 17.8089 34.2604 16.7707 34.7396 16.2916C35.2187 16.052 35.7778 16.2916 36.0972 16.611Z" fill="black"/>
<path d="M33.7813 14.6945C30.507 10.941 28.5104 14.934 28.5104 14.934C31.5452 12.6181 33.7813 14.6945 33.7813 14.6945Z" fill="black"/>
<path d="M23.8785 13.1772C24.3577 13.1772 24.8368 13.3369 25.316 13.5765C24.6771 11.5001 22.7604 10.4619 22.7604 10.4619C22.7604 10.4619 23.7188 11.8196 23.8785 13.1772Z" fill="#BA7300"/>
<path d="M24.4375 15.3333C24.5972 15.0139 24.8368 14.7743 25.0764 14.5347C24.4375 13.7361 23.0799 13.6562 22.3611 13.6562C22.3611 13.6562 22.8403 13.9757 23.0799 14.6944C23.0799 14.6944 21.9618 15.8924 20.6042 15.3333C20.7639 15.4931 21.1632 15.8125 21.6424 15.7326H21.7222C22.6007 15.4132 23.6389 15.1736 24.4375 15.3333Z" fill="#BA7300"/>
<path d="M24.757 14.2952L24.8368 14.375C24.8368 14.375 24.8368 14.2952 24.757 14.2952Z" fill="#EBEBEB"/>
<path d="M23.3195 9.66311C22.8403 9.82283 20.2049 11.1805 20.5243 15.2534C21.8021 15.8124 23 14.6145 23 14.6145C22.8403 13.9756 22.2813 13.5763 22.2813 13.5763C21.9618 13.5763 21.8021 13.5763 21.8021 13.5763C21.882 13.5763 21.882 13.4964 21.9618 13.4964C21.9618 13.4964 21.9618 13.4964 22.0417 13.4964C22.1216 13.4964 22.1216 13.4166 22.2014 13.4166C22.2014 13.4166 22.2014 13.4166 22.2813 13.4166C22.441 13.3367 22.6007 13.2569 22.7604 13.2569C23.0799 13.177 23.4792 13.0971 23.9584 13.0971C23.7986 11.7395 22.8403 10.302 22.8403 10.302C24.9167 10.7013 25.9549 12.2187 26.4341 13.177C26.4341 13.177 26.5139 13.177 26.5139 13.0971C26.4341 12.4582 26.1945 10.861 25.2361 9.98255C24.6771 9.74297 24.0382 9.58325 23.3195 9.66311Z" fill="#DFA000"/>
<path d="M33.8611 17.6491C34.2604 17.6491 34.2604 17.0103 33.8611 17.0103C33.4618 17.0103 33.4618 17.6491 33.8611 17.6491Z" fill="white"/>
<path d="M34.8194 16.3714C34.2604 16.8506 34.7396 17.8888 35.4583 17.8888C35.5382 17.8888 35.6181 17.8888 35.6979 17.8888C35.8576 17.8888 36.0174 17.8089 36.1771 17.6492C36.2569 17.5693 36.3368 17.4096 36.4167 17.2499C36.4167 17.0103 36.2569 16.8506 36.1771 16.6909C35.7778 16.2916 35.2188 16.052 34.8194 16.3714Z" fill="white"/>
<path d="M45.7604 8.86458C44.7222 8.46528 42.8056 7.82639 41.0486 7.34722C39.7708 6.94792 38.5729 6.62847 37.2951 6.30903C37.2153 6.30903 37.1354 6.30903 37.1354 6.30903C36.816 6.22917 36.4965 6.14931 36.2569 6.06944V5.59028L36.0174 6.06944C34.2604 5.67014 32.4236 5.27083 30.6667 4.95139C30.6667 4.71181 30.6667 4.47222 30.5868 4.23264L30.3472 2.39583L29.4688 3.91319C29.4688 3.91319 29.309 4.23264 28.9896 4.55208C28.5903 4.47222 28.191 4.47222 27.7917 4.39236C26.9132 3.03472 25.316 1.03819 22.9201 0.479167L20.9236 0L22.2813 1.51736C22.2813 1.51736 22.7604 2.07639 23 3.11458C21.4826 1.91667 18.6076 0 15.4931 0.159722L14.0556 0.239583L15.0938 1.27778C15.0938 1.27778 15.8125 1.99653 16.3715 3.11458C14.8542 2.55556 12.3785 1.83681 9.10417 2.07639L7.02778 2.15625L8.86458 3.19444C8.86458 3.19444 9.42361 3.51389 9.90278 4.23264C4.15278 4.95139 0.71875 6.06944 0.559028 6.14931L0 6.30903L0.159722 6.86806C5.67014 27.4722 15.2535 38.4931 22.2014 44.0833C22.3611 44.2431 22.6007 44.4028 22.7604 44.5625C23.4792 45.2014 24.9965 46 24.9965 46L25.316 45.6806C25.3958 45.6007 25.3958 45.6007 25.4757 45.5208L25.5556 45.441C25.9549 45.1215 26.3542 44.6424 26.9132 44.0833L26.9931 44.1632C27.0729 44.1632 27.2326 44.3229 27.4722 44.4826C28.3507 44.9618 28.6701 45.0417 28.6701 45.0417C28.9097 45.1215 29.1493 45.1215 29.3889 45.1215C29.4688 45.1215 29.4688 45.1215 29.5486 45.1215C30.1875 45.0417 30.8264 44.7222 31.3056 44.0833C32.2639 43.9236 33.6215 43.3646 33.8611 42.0069C34.1007 41.8472 34.3403 41.6076 34.5799 41.2083C34.8993 40.5694 34.9792 39.691 34.6597 38.5729C34.5 37.8542 34.0208 36.8958 33.8611 36.4965C33.7813 36.3368 33.7014 36.1771 33.6215 36.0174C35.3785 33.6215 37.1354 30.8264 38.8924 27.6319C39.2917 27.4722 39.6111 27.3125 39.9306 27.1528C41.5278 26.434 43.5243 25.1562 43.5243 25.1562C44.3229 24.5174 44.3229 24.1979 44.3229 24.0382C44.3229 23.4792 44.3229 23.0799 44.3229 22.8403C44.9618 22.3611 45.6806 21.5625 45.441 20.4444C46.7986 19.3264 45.9201 16.3715 45.9201 16.3715C45.6806 16.5312 44.6424 16.5312 43.8438 16.6111C43.8438 16.6111 43.8438 16.6111 43.7639 16.5312C44.4826 14.5347 45.0417 12.4583 45.6007 10.3021C45.7604 9.82292 45.8403 9.26389 45.9201 8.78472L45.7604 8.86458ZM30.5868 6.06944C32.184 6.30903 33.7813 6.70833 35.4583 7.02778L35.1389 7.66667C35.059 7.82639 34.6597 8.625 34.4201 9.42361C33.5417 8.70486 32.0243 7.66667 30.3472 7.34722C30.5069 6.94792 30.5868 6.46875 30.5868 6.06944ZM1.51736 7.1875C1.99653 7.02778 2.71528 6.86806 3.75347 6.62847H3.83333C4.47222 6.86806 5.35069 7.34722 5.90972 7.90625C4.87153 8.14583 3.43403 8.70486 2.23611 9.90278C2.07639 8.94444 1.75694 8.06597 1.51736 7.1875ZM9.42361 26.6736C9.6632 26.1146 10.4618 24.7569 12.7778 23.8785C12.6181 24.5972 12.2188 25.7153 11.4201 26.3542L9.98264 27.6319C9.82292 27.3924 9.58333 26.9931 9.42361 26.6736ZM13.816 33.5417C12.5382 31.8646 11.3403 30.0278 10.1424 27.9514C12.9375 26.9931 14.4549 25.9549 15.2535 24.9965C16.3715 23.6389 15.9722 22.6806 15.9722 22.6806C15.8924 23 15.7326 23.3194 15.5729 23.6389C15.0938 24.4375 14.2951 24.9965 13.5764 25.4757C13.6563 25.2361 13.7361 24.9965 13.816 24.7569C14.0556 23.8785 14.1354 23.1597 14.1354 23.0799L14.2153 22.2014L13.4167 22.441C10.7014 23.0799 9.34375 24.4375 8.70486 25.3958C8.14583 24.3576 7.58681 23.2396 7.02778 22.0417C7.10764 19.3264 9.34375 16.4514 9.34375 16.4514C7.58681 17.6493 6.70833 19.1667 6.30903 20.3646C5.90972 19.4062 5.43056 18.4479 5.03125 17.4097C5.82986 16.6111 8.06597 14.6944 10.3819 13.6562C10.7014 13.4965 11.1007 13.3368 11.4201 13.2569L12.5382 12.9375L11.6597 12.1389C11.5799 12.1389 10.941 11.5 9.74306 11.1806C11.0208 10.6215 12.9375 9.98264 14.7743 10.3021C14.7743 10.3021 12.059 8.46528 5.11111 12.5382L7.58681 12.2986C8.46528 12.2188 9.10417 12.3785 9.6632 12.5382C7.50695 13.4965 5.51042 15.1736 4.47222 16.1319C4.39236 15.8924 4.3125 15.7326 4.23264 15.4931C3.75347 14.2153 3.27431 12.7778 2.79514 11.4201C4.23264 9.18403 7.1875 8.94444 7.1875 8.94444L8.06597 8.86458L7.74653 8.06597C7.42708 7.26736 6.54861 6.62847 5.82986 6.14931C8.14583 5.67014 11.0208 5.98958 11.0208 5.98958L11.8993 6.06944L11.6597 5.19097C11.4201 4.3125 11.1007 3.67361 10.7014 3.19444C14.6944 3.27431 17.1701 4.79167 17.25 4.79167L18.6076 5.67014L18.2083 4.15278C17.9688 3.03472 17.4097 2.15625 16.9306 1.4375C20.2847 1.99653 23.2396 4.95139 23.2396 4.95139L24.1979 5.98958L24.2778 4.55208C24.3576 3.67361 24.1979 2.875 24.0382 2.31597C26.1944 3.67361 27.3125 6.22917 27.3125 6.22917L27.5521 6.78819L28.1111 6.62847C28.5903 6.46875 28.9896 6.22917 29.309 5.90972C29.1493 7.26736 28.5903 8.78472 28.0312 10.1424C27.7917 10.7014 27.5521 11.1806 27.3125 11.5799C27.0729 10.7812 26.5938 9.82292 25.875 9.18403C25.0764 8.54514 24.1181 8.30556 23 8.46528H22.8403C22.8403 8.46528 19.9653 9.58333 19.3264 12.9375C18.1285 13.0972 15.1736 13.4965 12.7778 14.5347C12.6181 14.6146 12.4583 14.6944 12.2986 14.7743L10.6215 15.5729L12.3785 15.9722C12.3785 15.9722 13.4167 16.2118 14.4549 16.7708C13.0972 17.0104 11.2604 17.5694 10.1424 19.0868C13.7361 16.7708 17.8889 18.0486 17.8889 18.0486L16.9306 16.7708C16.2118 16.0521 15.3333 15.5729 14.5347 15.2535C16.2917 14.6944 18.2083 14.375 19.2465 14.2153C19.2465 14.6146 19.2465 15.0938 19.3264 15.5729V15.7326L19.4062 15.8924C19.4861 15.9722 19.4861 16.0521 19.566 16.1319C19.9653 16.5312 20.6042 17.0104 21.4028 16.9306C21.5625 16.9306 21.6424 16.9306 21.8021 16.8507H21.8819C21.7222 17.4097 21.4028 17.809 21.1632 18.2882C20.3646 19.4062 19.4062 20.125 19.4062 20.125C20.4444 20.0451 21.1632 19.6458 21.7222 19.0868C22.6806 18.2882 23.0799 17.1701 23.3194 16.6111C23.4792 16.6111 23.6389 16.6111 23.7188 16.5312C23.4792 17.1701 23.2396 17.809 23.1597 18.6076C23.0799 18.8472 22.6806 20.125 21.8819 21.5625C21.0833 23 19.9653 24.4375 18.6076 25.0764L15.4931 26.434L17.4097 26.3542L19.8056 26.1944C19.4861 26.5139 19.0868 26.8333 18.6875 27.1528C17.809 27.9514 16.9306 28.9896 16.2917 30.0278L15.5729 31.3056L16.691 31.066L17.0104 30.9861C17.5694 30.8264 18.3681 30.7465 19.1667 30.6667C18.9271 30.9063 18.6875 31.2257 18.3681 31.5451C17.4097 32.6632 16.4514 34.2604 15.9722 36.3368C15.3333 35.4583 14.6146 34.5 13.816 33.5417ZM25.316 13.5764C23.8785 12.8576 22.5208 13.3368 21.8819 13.7361C21.8819 13.7361 24.1979 13.4167 25.0764 14.5347C24.8368 14.7743 24.6771 15.0139 24.4375 15.3333C23.6389 15.1736 22.6007 15.4132 21.6424 15.6528H21.5625C21.0833 15.7326 20.684 15.4931 20.5243 15.2535C20.125 11.1806 22.8403 9.82292 23.3194 9.66319C24.0382 9.58333 24.6771 9.74306 25.1563 10.1424C26.1146 10.941 26.3542 12.5382 26.434 13.2569C26.434 13.2569 26.3542 13.2569 26.3542 13.3368C25.875 12.2986 24.8368 10.7812 22.7604 10.4618C22.7604 10.3819 24.6771 11.5 25.316 13.5764ZM36.0972 29.3889L32.8229 35.1389C32.8229 35.1389 32.184 34.5 31.7049 34.1806C32.6632 33.4618 34.9792 31.5451 35.8576 29.1493C36.0174 29.0694 36.2569 28.9896 36.4167 28.9097C36.3368 29.0694 36.2569 29.2292 36.0972 29.3889ZM44.0035 20.9236C44.1632 21.4028 43.7639 21.8021 43.4445 22.0417C43.4445 22.0417 41.7674 23 38.8125 23C38.8125 23 38.8125 22.9201 38.8125 22.7604C38.8125 22.441 38.6528 21.6424 38.0139 21.3229C38.0139 21.3229 38.4132 23.6389 37.2951 24.4375C37.2951 24.4375 37.5347 24.3576 37.8542 24.2778C38.1736 24.1181 38.5729 23.8785 38.7326 23.4792C38.7326 23.4792 41.2882 23.6389 42.8854 23.1597C42.8854 23.3993 42.9653 23.7188 42.8854 24.2778C42.3264 24.9965 38.4132 26.7535 35.059 28.1111L34.7396 28.2708C34.7396 28.2708 33.2222 32.1042 30.9063 33.2222C30.6667 31.9444 29.9479 29.7882 28.0312 28.4306C27.3125 27.8715 26.434 27.4722 25.316 27.3125C26.8333 27.6319 30.0278 28.9097 29.7882 34.6597L30.1875 34.8194C30.2674 34.8194 32.1042 35.6181 33.1424 38.4931C33.3021 38.9722 33.4618 39.4514 33.4618 39.7708C33.5417 40.3299 33.4618 40.7292 33.3819 40.9688C33.2222 41.2882 32.9826 41.3681 32.9826 41.3681L32.5035 41.5278V42.0069C32.5035 43.125 30.9062 43.2847 30.8264 43.2847H30.5069L30.3472 43.3646C30.0278 43.7639 29.7083 44.0035 29.3889 44.0833C28.9896 44.1632 28.5903 43.9236 28.2708 43.7639L29.5486 42.0868L29.3889 41.7674C27.3125 37.375 22.5208 37.2153 20.6042 37.375C20.6042 37.375 20.2049 34.5799 21.4028 31.3056C21.3229 31.3854 20.2049 33.2222 19.566 35.9375C19.4063 36.5764 19.3264 37.2951 19.2465 38.0139L19.1667 38.8125L19.9653 38.6528C20.2049 38.6528 24.0382 37.934 26.6736 40.25C27.0729 40.4097 27.5521 41.2083 27.5521 41.2083C26.3542 42.566 25.316 43.6042 24.5972 44.3229C24.2778 44.1632 23.1597 43.3646 22.7604 43.125C21.0035 41.6875 19.0868 39.9306 17.0903 37.6944C17.4097 35.2986 18.5278 33.5417 19.566 32.3438C20.3646 31.3854 21.0833 30.9062 21.1632 30.8264L22.2014 30.1076L21.0833 29.7083C20.8438 29.6285 20.5243 29.5486 20.2049 29.5486C19.6458 29.5486 19.0069 29.5486 18.4479 29.6285C19.4861 28.2708 20.9236 27.1528 21.7222 26.5938C22.1215 26.2743 22.3611 26.1146 22.3611 26.1146L24.3576 24.8368L22.5208 24.9167L21.0035 24.9965C21.9618 24.1181 22.6806 22.9201 23.2396 21.8819L23.4792 23.2396L24.3576 22.2014C24.3576 22.2014 24.5972 21.9618 25.1563 21.7222C25.0764 22.2014 25.0764 22.8403 25.2361 23.4792C25.316 24.0382 25.5556 24.5972 25.875 25.0764C25.1563 23 26.8333 20.0451 26.8333 20.0451L25.875 20.2049C25.316 20.2847 24.8368 20.4444 24.4375 20.684C24.3576 20.2049 24.3576 19.8056 24.4375 19.3264C24.5174 19.1667 24.5174 19.0868 24.5174 19.0069H24.4375C24.5972 17.1701 25.5556 15.5729 26.434 14.375C27.7118 12.7778 29.2292 11.8194 29.2292 11.8194C29.2292 11.8194 28.9896 11.8993 28.6701 11.9792C29.1493 11.0208 29.6285 9.82292 30.1076 8.54514C30.4271 8.625 30.8264 8.70486 31.1458 8.86458C32.9826 9.58333 34.5799 11.0208 34.5799 11.1007L35.6979 12.2188L35.6181 10.6215C35.6181 10.4618 35.6181 10.2222 35.6979 9.98264C36.6563 12.2986 38.6528 15.1736 38.9722 15.5729L40.4097 17.6493L40.0903 15.0938C40.0903 15.0139 40.0903 14.8542 40.0903 14.6944C40.809 15.7326 41.6875 16.691 42.3264 17.3299C42.1667 17.6493 42.0069 18.1285 41.9271 18.9271C41.8472 19.4861 42.0868 19.8854 42.3264 20.125C42.7257 20.6042 43.4444 20.8438 44.0035 20.9236ZM42.3264 15.6528C41.7674 15.0938 41.0486 14.0556 41.0486 14.0556C40.7292 13.5764 40.4896 13.0972 40.4097 12.6181L40.0104 10.0625L39.2118 12.5382C39.2118 12.6181 39.0521 13.0174 38.9722 13.4167C37.8542 11.6597 36.4167 9.10417 36.3368 7.90625V7.26736C37.8542 7.66667 39.2917 8.06597 40.809 8.54514C42.7257 9.18403 43.8438 9.66319 44.0035 9.74306C43.5243 11.8194 42.9653 13.7361 42.3264 15.6528Z" fill="black"/>
</g>
<defs>
<clipPath id="clip0_805_63">
<rect width="189.351" height="46" fill="white"/>
</clipPath>
</defs>
</svg>
