<?xml version="1.0" encoding="utf-8"?>
<svg xmlns="http://www.w3.org/2000/svg" xmlns:xlink="http://www.w3.org/1999/xlink">
    <symbol xmlns="http://www.w3.org/2000/svg" id="arrow" viewBox="0 0 7 4">
        <path fill-rule="evenodd" clip-rule="evenodd" d="M0.124512 0.5H6.12766L3.12608 3.5L0.124512 0.5Z"/>
    </symbol>
    <symbol xmlns="http://www.w3.org/2000/svg" id="inst" viewBox="0 0 23 20">
        <path fill-rule="evenodd" clip-rule="evenodd" d="M20.1941 19.9996H2.87626C1.44214 19.9996 0.279297 18.9661 0.279297 17.6912V2.30718C0.279297 1.03291 1.44214 0 2.87626 0H20.1941C21.6284 0 22.791 1.03291 22.791 2.30718V17.6912C22.791 18.9661 21.6284 19.9996 20.1941 19.9996ZM11.5351 6.15332C9.14395 6.15332 7.20587 7.87496 7.20587 9.99927C7.20587 12.1232 9.14395 13.8458 11.5351 13.8458C13.9262 13.8458 15.8647 12.1232 15.8647 9.99927C15.8647 7.87496 13.9262 6.15332 11.5351 6.15332ZM20.194 3.0763C20.194 2.65172 19.8062 2.30718 19.3273 2.30718H16.7304C16.2521 2.30718 15.8647 2.65172 15.8647 3.0763V5.38437C15.8647 5.80895 16.2521 6.15349 16.7304 6.15349H19.3273C19.8062 6.15349 20.194 5.80895 20.194 5.38437V3.0763ZM20.194 8.46049H18.2343C18.3771 8.95292 18.4614 9.46744 18.4614 9.99944C18.4614 13.3986 15.3605 16.1533 11.5351 16.1533C7.70981 16.1533 4.60869 13.3986 4.60869 9.99944C4.60869 9.46744 4.69342 8.95292 4.83621 8.46049H2.87626V16.9226C2.87626 17.3468 3.26407 17.6912 3.74297 17.6912H19.3273C19.8062 17.6912 20.194 17.3468 20.194 16.9226V8.46049Z"/>
    </symbol>
    <symbol xmlns="http://www.w3.org/2000/svg" id="telegram" viewBox="0 0 24 20">
        <path fill-rule="evenodd" clip-rule="evenodd" d="M0.800415 1.12637V18.8736C0.800415 19.4945 1.36939 20 2.06825 20H22.0443C22.7432 20 23.3121 19.4945 23.3121 18.8736V1.12637C23.3121 0.505494 22.7432 0 22.0443 0H2.06825C1.36939 0 0.800415 0.505494 0.800415 1.12637ZM19.8426 4.42308L17.1956 15.7253C17.1338 15.9945 16.7813 16.1154 16.5339 15.9505L12.9221 13.6264C12.7057 13.4835 12.4026 13.4945 12.1923 13.6429L10.1885 15.0934C9.95353 15.2637 9.6072 15.1703 9.51443 14.9121L8.30844 11.467C8.19094 11.1319 7.90645 10.8681 7.54156 10.7473L4.53588 9.74725C4.17099 9.62637 4.17099 9.17033 4.52969 9.04396L19.2674 3.99451C19.5829 3.89011 19.9106 4.13187 19.8426 4.42308Z"/>
        <path fill-rule="evenodd" clip-rule="evenodd" d="M16.3174 6.46715L9.29796 10.3078C9.02584 10.4562 8.90215 10.7419 8.98873 11.0166L9.74943 13.3847C9.80509 13.5551 10.0772 13.5331 10.1019 13.3628L10.2999 12.0661C10.337 11.8243 10.4668 11.5935 10.6709 11.4287L16.4658 6.64297C16.571 6.55506 16.4411 6.40121 16.3174 6.46715Z"/>
    </symbol>
    <symbol xmlns="http://www.w3.org/2000/svg" id="vk" viewBox="0 0 23 20">
        <path d="M21.3987 0H1.75916C0.964876 0 0.321503 0.57159 0.321503 1.27585V18.7242C0.321503 19.4284 0.964876 20 1.75916 20H21.3971C22.1898 20 22.8332 19.4284 22.8332 18.7242V1.27585C22.8348 0.570179 22.1914 0 21.3987 0ZM18.9952 12.1869C19.4067 12.5595 20.2994 13.1847 20.1374 13.8212C19.9881 14.4055 19.0063 14.1924 18.0532 14.2262C16.965 14.2672 16.3201 14.2883 15.6656 13.8212C15.3574 13.5996 15.1763 13.3371 14.8808 13.0435C14.6123 12.7782 14.274 12.3026 13.8133 12.3209C12.9856 12.3576 13.2446 13.3823 12.9507 14.0809C8.35017 14.7244 6.50265 12.1996 4.87277 9.74949C4.08325 8.56256 2.94265 6.01369 2.94265 6.01369L6.19606 6.00381C6.19606 6.00381 7.23975 7.69035 7.51617 8.12504C7.75127 8.49481 8.01021 8.78837 8.27709 9.11862C8.50108 9.39242 8.85534 9.92873 9.24295 9.88498C9.87361 9.813 9.98799 7.63955 9.5972 6.9113C9.44152 6.61633 9.0682 6.5133 8.68218 6.4131C8.81244 5.68203 12.3311 5.5296 12.8999 6.09696C13.7259 6.92118 12.328 9.21601 13.459 9.88498C15.0476 9.14544 16.4042 6.04897 16.4042 6.04897L20.2137 6.07014C20.2137 6.07014 19.6179 7.74398 18.9936 8.48635C18.6298 8.92104 17.4225 9.88921 17.4702 10.6076C17.5083 11.1763 18.4901 11.7296 18.9952 12.1869Z"/>
    </symbol>
    <symbol xmlns="http://www.w3.org/2000/svg" id="fb"  viewBox="0 0 24 20">
        <path fill-rule="evenodd" clip-rule="evenodd" d="M22.1118 0H2.08502C1.39877 0 0.84259 0.494127 0.84259 1.1038V18.8961C0.84259 19.5057 1.39877 20 2.08502 20H12.8668V12.2549H9.93307V9.23652H12.8668V7.01055C12.8668 4.42736 14.6427 3.02074 17.2365 3.02074C18.479 3.02074 19.5468 3.10287 19.858 3.13959V5.83923L18.059 5.83997C16.6484 5.83997 16.3752 6.43549 16.3752 7.30939V9.23652H19.7396L19.3016 12.2549H16.3752V20H22.1118C22.798 20 23.3542 19.5057 23.3542 18.8961V1.1038C23.3542 0.494127 22.798 0 22.1118 0Z"/>
    </symbol>
    <symbol xmlns="http://www.w3.org/2000/svg" id="arrow-left"  viewBox="0 0 20 38">
        <path d="M2.59171 18.999L19.6847 1.83759C20.1051 1.41552 20.1051 0.738618 19.6847 0.316551C19.2643 -0.105517 18.5901 -0.105517 18.1697 0.316551L0.315289 18.2425C-0.105096 18.6645 -0.105096 19.3414 0.315289 19.7635L18.1697 37.6815C18.376 37.8885 18.6536 38 18.9233 38C19.1929 38 19.4706 37.8965 19.6768 37.6815C20.0972 37.2594 20.0972 36.5825 19.6768 36.1604L2.59171 18.999Z"/>
    </symbol>
    <symbol xmlns="http://www.w3.org/2000/svg" id="arrow-right"  viewBox="0 0 20 38">
        <path d="M17.4083 19.001L0.315289 36.1624C-0.105095 36.5845 -0.105095 37.2614 0.315289 37.6834C0.735674 38.1055 1.40987 38.1055 1.83026 37.6834L19.6847 19.7575C20.1051 19.3355 20.1051 18.6586 19.6847 18.2365L1.83026 0.318537C1.62404 0.111487 1.34642 -1.63075e-06 1.07674 -1.65432e-06C0.807062 -1.6779e-06 0.529449 0.103522 0.323223 0.318537C-0.0971628 0.740606 -0.0971629 1.41751 0.323222 1.83957L17.4083 19.001Z"/>
    </symbol>
    <symbol xmlns="http://www.w3.org/2000/svg" id="star"  viewBox="0 0 14 14">
        <path fill-rule="evenodd" clip-rule="evenodd" d="M6.6574 11.1684L2.5429 13.3315L3.3287 8.74999L0 5.50531L4.60015 4.83687L6.6574 0.668427L8.71464 4.83687L13.3148 5.50531L9.98609 8.74999L10.7719 13.3315L6.6574 11.1684Z"/>
    </symbol>
</svg>
