<svg width="147" height="42" viewBox="0 0 147 42" fill="none" xmlns="http://www.w3.org/2000/svg">
<path fill-rule="evenodd" clip-rule="evenodd" d="M78.3119 15.8525C78.8729 15.8602 79.4363 15.8755 80.0091 15.9102C79.4379 15.8769 78.8721 15.8588 78.3119 15.8525Z" fill="white"/>
<path fill-rule="evenodd" clip-rule="evenodd" d="M80.6643 15.9614C81.0978 15.9948 81.5289 16.024 81.9679 16.0727C81.5297 16.0254 81.097 15.9941 80.6643 15.9614Z" fill="white"/>
<path fill-rule="evenodd" clip-rule="evenodd" d="M21.1664 -6.10352e-05C21.1664 -6.10352e-05 22.5154 1.38054 21.0858 4.45943C19.6562 7.53763 15.8652 12.6005 18.4238 14.3044C18.4238 14.3044 18.6163 12.4052 21.1578 9.24913C23.6985 6.09307 27.9293 0.0965671 21.1664 -6.10352e-05Z" fill="white"/>
<path fill-rule="evenodd" clip-rule="evenodd" d="M28.8509 19.3501C28.379 19.3508 27.9369 19.2333 27.6067 18.9017C26.8775 18.1718 26.9495 16.7307 27.4753 15.8437C27.667 15.519 28.0786 14.9969 28.7398 15.006C28.7789 15.0067 28.8188 15.0088 28.8603 15.0136C29.4541 15.0783 29.6443 15.3181 29.7437 15.5197C30.0942 16.233 29.721 17.6865 28.8509 19.3501ZM33.6842 17.7985C32.4134 18.5889 30.7397 18.9761 30.3829 19.0525C31.0613 17.5691 31.408 16.0891 30.9048 15.0685C30.6764 14.6021 30.1615 14.0202 29.0144 13.8958C27.9252 13.7762 26.9573 14.2955 26.3524 15.3195C25.6177 16.5618 25.5308 18.5207 26.6576 19.649C26.9455 19.9375 27.4487 20.299 28.2343 20.4283C27.8031 21.1241 27.3 21.836 26.7382 22.5291C25.0958 24.5555 23.6122 24.8134 22.8978 24.7967C22.2664 24.201 22.6248 22.0369 23.0222 20.0744C23.487 17.7804 26.4542 14.4193 26.4542 14.4193C21.2539 14.3449 19.4464 19.0845 19.3916 22.1356C19.3493 24.4665 20.8556 25.4474 22.0301 25.788L22.023 25.804C22.0496 25.8123 22.2179 25.8617 22.4847 25.8937C22.6662 25.925 22.8321 25.9403 22.969 25.9423C23.0856 25.9444 23.178 25.9312 23.2539 25.9104C24.3532 25.8339 26.0481 25.3084 27.7671 23.1874C28.3618 22.4533 29.0692 21.4641 29.6818 20.4012C29.9753 20.3497 30.2914 20.2712 30.631 20.1586C30.9674 20.089 32.8915 19.6671 34.4111 18.7216L33.6842 17.7985Z" fill="white"/>
<path fill-rule="evenodd" clip-rule="evenodd" d="M40.1566 19.5161C39.6988 19.5203 39.2434 19.3993 38.9124 19.067C38.184 18.3378 38.2559 16.896 38.781 16.009C38.9735 15.6843 39.385 15.1623 40.0455 15.172C40.0846 15.1727 40.1245 15.1748 40.166 15.1797C40.7598 15.2443 40.9508 15.4841 41.0501 15.6857C41.4007 16.399 41.0275 17.8526 40.1566 19.5161ZM44.9899 17.9643C43.7199 18.754 42.0462 19.1419 41.6886 19.2184C42.367 17.7342 42.7145 16.2549 42.2113 15.2344C41.9821 14.7679 41.468 14.1861 40.3209 14.0617C39.2301 13.9386 38.2638 14.4614 37.6589 15.4847C36.9234 16.7269 36.8373 18.6859 37.9641 19.8149C38.252 20.1034 38.7544 20.4648 39.54 20.5941C39.1096 21.29 38.6057 22.0019 38.0439 22.6949C36.4031 24.7213 34.9187 24.9793 34.2043 24.9633C33.5721 24.3675 33.9312 22.2028 34.3287 20.2403C34.7935 17.9462 37.7599 14.5851 37.7599 14.5851C32.5596 14.5107 30.7528 19.2504 30.6981 22.3008C30.6558 24.6317 32.1613 25.6125 33.3358 25.9532L33.3295 25.9692C33.3553 25.9782 33.5228 26.0262 33.7865 26.0588C33.9704 26.0901 34.1378 26.1061 34.2755 26.1082C34.3929 26.1096 34.4852 26.0971 34.5611 26.0762C35.6605 25.9991 37.3553 25.4735 39.0736 23.3533C39.6675 22.6192 40.3757 21.6299 40.9883 20.567C41.281 20.5156 41.5971 20.4363 41.9367 20.3244C42.2739 20.2549 44.1972 19.8329 45.7168 18.8875L44.9899 17.9643Z" fill="white"/>
<mask id="mask0_13_495" style="mask-type:alpha" maskUnits="userSpaceOnUse" x="0" y="2" width="22" height="29">
<path fill-rule="evenodd" clip-rule="evenodd" d="M0.279297 2.26611V30.3821H21.4428V2.26611L0.279297 2.26611V2.26611Z" fill="white"/>
</mask>
<g mask="url(#mask0_13_495)">
<path fill-rule="evenodd" clip-rule="evenodd" d="M21.3177 23.7616C21.1416 23.4259 21.018 23.0887 20.935 22.7536C19.2598 24.3338 17.0704 26.3629 15.5117 27.6782C14.8607 28.2281 14.2715 28.5868 13.7527 28.8218C11.7379 24.7828 19.0579 17.2006 19.0579 17.2006C14.5602 17.136 11.9781 20.0105 10.5845 22.7411C8.91472 23.7665 6.98828 24.6417 5.77233 24.194C3.25277 23.266 4.91083 13.4301 8.80048 8.74325C12.6901 4.05713 15.0235 3.62126 16.4476 3.78254C17.8717 3.94382 20.3419 4.6508 19.2261 7.93755L20.6901 5.86178C20.6901 5.86178 20.3083 2.3352 15.5235 2.26708C10.7387 2.19826 4.2559 5.81451 1.25747 13.8006C-1.74095 21.786 2.92257 25.656 4.95308 25.6845C5.95777 25.6991 7.87169 25.5976 9.68859 24.8989C9.31222 26.0459 9.15729 26.9719 9.15103 27.341C9.12599 28.7022 10.1229 30.3595 11.6847 30.3817C11.91 30.3852 12.1182 30.365 12.3169 30.3344C13.3169 30.283 14.734 29.8895 16.3857 28.495C17.8349 27.2715 19.8208 25.4412 21.4428 23.9173C21.3935 23.8763 21.3505 23.8249 21.3177 23.7616Z" fill="white"/>
</g>
<path fill-rule="evenodd" clip-rule="evenodd" d="M68.353 30.3132C67.594 30.3209 66.8374 30.2298 66.1465 30.0352L66.0651 30.0115C65.9657 29.9837 65.8671 29.9559 65.7795 29.9274C65.3163 29.7662 64.882 29.5583 64.49 29.308C64.0549 29.03 63.6605 28.7477 63.317 28.4738C62.382 27.4624 62.1355 26.1096 62.5839 24.453C63.2318 22.0616 65.5745 19.4165 68.2458 18.0359C69.6973 17.493 71.2709 17.0801 72.9242 16.8062C74.4101 18.843 74.7716 21.5945 74.7474 22.9264C74.7051 25.2649 73.0385 30.3716 68.353 30.3132ZM84.8577 15.9163C81.6621 15.3484 78.5643 15.1544 75.6582 15.3394C74.7482 14.738 73.8436 14.2083 73.0424 13.7391C70.6112 12.3147 68.8546 11.2851 68.8851 9.60284C68.9289 7.1642 71.5784 4.81662 73.5627 4.84512C74.5518 4.87501 75.3898 5.24206 75.9203 5.87814C76.0181 5.99562 76.0995 6.12423 76.1738 6.257C76.7161 7.00917 76.8154 7.94695 76.5932 8.87917C75.2497 11.3998 74.1621 13.9977 75.8553 15.1245C75.8553 15.1245 76.0486 13.226 78.5893 10.07C81.1308 6.91324 85.3608 0.917429 78.5979 0.820801C78.5979 0.820801 79.9469 2.2014 78.5173 5.2796C78.3115 5.72381 78.0549 6.20973 77.7771 6.72068C77.7771 6.7179 77.9571 3.15865 72.6895 3.08357C72.0291 3.07453 71.4117 3.1371 70.8358 3.25875C69.7239 3.43741 68.6425 3.81349 67.7137 4.35781C67.4579 4.54689 67.2216 4.73737 67.0213 4.92298C65.2912 6.53229 64.5948 8.58442 64.6809 9.8107C64.8507 12.2459 67.0267 13.5493 70.4829 14.8632C71.0252 15.0689 71.5322 15.379 71.9986 15.787C71.8436 15.8148 71.691 15.8434 71.5416 15.8739C64.3828 17.3407 60.803 21.021 60.2693 22.4745C59.5025 24.5594 59.206 27.324 63.7505 30.2236C63.785 30.2458 63.8225 30.2625 63.8577 30.284C64.9563 30.7568 66.0533 31.0397 67.2231 31.2267C69.0956 31.3358 70.9023 31.1655 72.6683 30.599C72.6824 30.5934 72.7004 30.5871 72.7137 30.5816C76.1441 29.5847 78.2121 28.2987 78.8608 26.7582C80.2153 23.5444 80.1409 19.2052 77.0877 16.4203C79.504 16.3592 82.022 16.5615 84.6096 17.0203L84.9203 17.0759L85.1683 15.9713L84.8577 15.9163Z" fill="white"/>
<path fill-rule="evenodd" clip-rule="evenodd" d="M97.1813 21.9384C94.9841 26.156 92.5499 25.9183 91.9528 25.7834C91.1782 25.3315 91.553 23.0458 91.9708 20.9826C92.4356 18.6885 95.4028 15.3267 95.4028 15.3267C90.2017 15.2523 88.395 19.992 88.3402 23.043C88.3308 23.5297 88.3903 23.9565 88.499 24.3319C86.8887 25.9579 85.4443 25.807 85.0037 25.7076C84.2283 25.2565 84.6039 22.9701 85.0209 20.9068C85.4857 18.6128 88.4536 15.2509 88.4536 15.2509C83.2526 15.1765 81.4458 19.9162 81.3903 22.9673C81.3441 25.5443 83.1884 26.4709 84.3856 26.7066L84.3832 26.7121C84.4349 26.7316 84.8558 26.8804 85.5029 26.8901C86.3887 26.9026 87.6986 26.6482 89.064 25.4435C89.7001 26.2603 90.6289 26.6433 91.3355 26.7817L91.3323 26.7879C91.384 26.8067 91.805 26.9561 92.4528 26.9652C93.8425 26.9853 96.2752 26.359 98.3323 22.4118L97.1813 21.9384Z" fill="white"/>
<path fill-rule="evenodd" clip-rule="evenodd" d="M121.991 23.6478C120.031 26.4869 118.079 26.2916 117.553 26.1727C116.778 25.7215 117.153 23.4358 117.572 21.3719C118.036 19.0778 121.003 15.7167 121.003 15.7167C115.802 15.6423 113.996 20.3819 113.94 23.4323C113.893 26.0093 115.738 26.936 116.936 27.1716L116.933 27.1772C116.985 27.1967 117.406 27.3454 118.053 27.3552C119.107 27.3698 120.761 27.0097 122.396 25.1146C122.072 24.7045 121.958 24.181 121.991 23.6478Z" fill="white"/>
<path fill-rule="evenodd" clip-rule="evenodd" d="M134.792 22.4957C133.995 23.553 132.786 24.8356 131.696 25.6059C131.151 26.0216 130.843 25.8582 130.824 24.8071C130.804 23.7525 132.833 18.65 132.737 17.3487C132.642 16.0473 130.984 15.9757 130.984 15.9757L130.984 15.9771C130.358 15.9333 129.54 16.2614 128.501 16.9761C127.481 17.6775 125.409 20.5006 123.821 22.7904C124.847 19.2013 126.595 15.8499 126.595 15.8499C122.475 15.7908 120.908 19.1491 120.917 23.0226C120.926 26.8961 123.097 27.3737 123.097 27.3737C123.086 26.9169 123.112 26.4373 123.167 25.9444C124.505 23.9145 126.324 21.293 127.7 19.5676C128.255 18.9024 128.649 18.5819 129.2 18.2823C129.986 17.8541 129.736 19.2388 129.153 20.8822C128.569 22.5256 128.505 24.9781 128.505 24.9781L128.508 24.9719C128.426 25.7317 128.487 26.3497 128.759 26.7717C128.964 27.0907 129.279 27.2993 129.671 27.3737C129.8 27.3987 129.93 27.4119 130.061 27.4133C132.46 27.4474 135.28 23.8742 135.846 23.122L134.792 22.4957Z" fill="white"/>
<path fill-rule="evenodd" clip-rule="evenodd" d="M54.3824 9.41186C56.1735 5.83175 58.0483 4.15848 58.5428 4.03613C59.3198 5.17968 55.9168 13.7685 51.8707 19.3861C51.9254 14.8606 53.5843 11.0059 54.3824 9.41186ZM59.1375 3.03313C59.0326 2.98307 58.9192 2.94623 58.7971 2.92677C58.7548 2.91634 58.7243 2.91008 58.7243 2.91008C57.2619 2.75367 55.3894 5.35151 54.65 6.47281C52.1148 10.315 50.1915 15.6302 50.6117 21.0074C47.1211 25.1957 45.5953 25.0386 45.4748 25.0192C45.42 24.9969 45.3636 24.99 45.3065 24.9823C44.8269 24.397 45.0311 22.7348 45.3464 21.0602C47.1289 15.5413 50.7298 15.2945 50.7298 15.2945C49.7627 14.4485 48.2916 14.5791 47.2463 14.8273C47.1187 14.8551 46.9974 14.8899 46.8754 14.924C46.7729 14.9538 46.6774 14.9823 46.5898 15.0108C46.4732 15.0498 46.3558 15.0866 46.2447 15.1311C46.0937 15.1874 46.0021 15.227 46.0021 15.227L46.0006 15.2409C43.0272 16.5819 41.9036 19.9917 41.8605 22.3782C41.805 25.43 44.4043 26.1711 45.438 26.1856C45.5389 26.187 45.6187 26.1766 45.6892 26.1606C46.3308 26.1286 47.33 25.7943 48.7549 24.6208L48.7424 24.6361C49.3096 24.2336 50.0413 23.6309 50.8628 22.8864C51.3621 25.5961 52.5021 28.2795 54.5178 30.7564C54.6398 30.9058 54.8292 30.9872 55.0225 30.9899C55.1539 30.9913 55.2877 30.9573 55.4035 30.8829C55.6868 30.7008 55.7509 30.349 55.5459 30.0967C53.3581 27.4084 52.3464 24.5437 52.0099 21.8103C55.6813 18.2566 60.398 12.6612 61.29 8.78911C62.2439 4.64452 60.0788 3.38071 59.1375 3.03313Z" fill="white"/>
<path fill-rule="evenodd" clip-rule="evenodd" d="M109.513 19.6689C109.681 15.3693 111.244 11.7468 112.011 10.2147C113.849 6.54211 115.773 4.87649 116.183 4.82227C116.185 4.82296 116.319 4.94253 116.345 5.45626C116.478 8.13334 113.506 15.2637 109.573 19.6112C109.552 19.6321 109.533 19.6488 109.513 19.6689ZM116.412 3.70954L116.416 3.72205C116.395 3.71927 116.372 3.7151 116.353 3.71302C114.884 3.56634 113.019 6.15444 112.279 7.27574C109.915 10.8559 108.089 15.7158 108.191 20.7126C106.861 21.5086 105.711 21.4502 104.649 21.3925C103.734 21.0373 106.387 17.9208 106.411 16.6535C106.429 15.6435 105.202 15.4502 104.701 15.4127C104.633 15.4057 104.566 15.4036 104.497 15.4036H104.491C104.031 15.4078 103.582 15.5587 103.374 15.631C101.866 16.1558 100.376 18.0564 99.1714 20.0432C100.119 17.4822 101.16 15.4864 101.16 15.4864C97.0391 15.428 95.4726 18.7856 95.4812 22.6598C95.4906 26.5333 97.662 27.0101 97.662 27.0101C97.651 26.5868 97.6729 26.1433 97.7191 25.6886L97.7301 25.6921C98.5618 23.649 101.034 18.4853 103.235 17.0032C104.182 16.7863 103.828 16.698 102.761 19.031C101.685 21.3814 103.469 22.2573 103.469 22.2573L103.47 22.2566C103.68 22.3852 103.959 22.4846 104.336 22.5041L104.57 22.5166C105.604 22.575 106.847 22.6382 108.257 21.9889C108.545 25.268 109.71 28.5645 112.147 31.5593C112.268 31.7088 112.458 31.7894 112.651 31.7922C112.783 31.7943 112.917 31.7595 113.032 31.6858C113.316 31.503 113.379 31.1512 113.174 30.8989C110.657 27.8054 109.685 24.4769 109.523 21.3855C109.639 21.2757 109.754 21.1575 109.87 21.0407L109.829 21.0998C111.077 20.4874 112.235 19.6838 113.146 18.7217C113.627 18.2149 114.062 17.6685 114.57 17.1833C114.645 17.1124 114.721 17.0428 114.799 16.974C116.814 14.4095 118.483 11.7338 118.977 9.58856C120.182 4.35952 116.412 3.70954 116.412 3.70954Z" fill="white"/>
<path fill-rule="evenodd" clip-rule="evenodd" d="M141.54 23.5443C141.43 23.4713 141.353 23.3747 141.3 23.2711C141.101 23.5436 140.892 23.8154 140.674 24.0845C139.033 26.1088 137.55 26.3695 136.835 26.3535C136.202 25.7584 136.561 23.593 136.958 21.6298C137.422 19.3358 140.39 15.9739 140.39 15.9739C135.189 15.8996 133.382 20.6399 133.328 23.6903C133.286 25.9725 134.729 26.9618 135.892 27.3225C135.916 27.333 135.933 27.3504 135.959 27.3587C135.985 27.3677 136.152 27.4157 136.416 27.4477C136.6 27.4797 136.766 27.4956 136.905 27.4977C137.022 27.4991 137.115 27.4866 137.191 27.4651C138.291 27.3886 139.986 26.8623 141.703 24.7428C141.802 24.6204 141.904 24.4897 142.009 24.3542C141.957 24.0386 141.828 23.7355 141.54 23.5443Z" fill="white"/>
<path fill-rule="evenodd" clip-rule="evenodd" d="M124.095 3.75916C124.095 3.75916 124.92 5.04035 123.246 7.27948C121.571 9.51931 117.677 13.0021 119.404 14.7073C119.404 14.7073 119.891 13.2301 122.459 11.0834C125.027 8.93676 129.434 4.77549 124.095 3.75916Z" fill="white"/>
<path fill-rule="evenodd" clip-rule="evenodd" d="M101.277 27.7743C101.277 27.7743 101.713 26.3499 104.68 25.8188C107.646 25.287 113.173 25.2703 113.308 22.9805C113.308 22.9805 111.788 23.7187 108.263 23.6228C104.739 23.5276 98.3111 23.7021 101.277 27.7743Z" fill="white"/>
<path fill-rule="evenodd" clip-rule="evenodd" d="M130.716 40.1126C129.125 40.075 128.996 39.5029 128.954 39.3145C128.524 37.3889 132.936 32.7313 138.206 29.6899C136.773 34.5401 134.726 39.3799 130.716 40.1126ZM144.535 16.0912C144.505 16.0933 144.475 16.0961 144.446 16.0988C144.412 16.1016 144.381 16.103 144.346 16.1065V16.1086C143.659 16.1857 142.999 16.4596 142.616 17.1346C141.557 19.0081 140.612 20.7127 139.109 26.4137C138.96 26.9761 138.807 27.5524 138.648 28.1343C132.992 31.1381 127.067 36.6563 127.711 39.5336C127.878 40.2844 128.53 41.1888 130.683 41.2395H130.729C135.518 41.3084 138.988 34.3699 141.277 28.185L141.752 26.8607C141.758 26.8468 141.762 26.8336 141.766 26.8204C141.769 26.7829 141.76 26.7481 141.771 26.7071C142.1 25.4759 142.459 24.3442 142.891 23.1444C143.219 22.2323 143.373 21.3209 143.849 20.4791C143.893 20.3498 143.933 20.2191 143.983 20.0933C143.973 20.1051 143.963 20.1162 143.953 20.1287C145.014 17.1638 146.187 16.639 146.284 16.6008L146.579 16.5305C146.579 16.5305 146.308 15.9473 144.535 16.0912Z" fill="white"/>
<path fill-rule="evenodd" clip-rule="evenodd" d="M138.567 16.1672C138.567 16.1672 141.628 15.3288 142.351 16.7581C142.351 16.7581 138.435 16.4251 136.958 21.6298L136.171 19.1077L138.567 16.1672Z" fill="white"/>
</svg>
